<?xml version="1.0" encoding="UTF-8" standalone="no"?>
<!DOCTYPE svg PUBLIC "-//W3C//DTD SVG 1.1//EN" "http://www.w3.org/Graphics/SVG/1.1/DTD/svg11.dtd">
<svg version="1.1" xmlns="http://www.w3.org/2000/svg" xmlns:xlink="http://www.w3.org/1999/xlink" preserveAspectRatio="xMidYMid meet" viewBox="0 0 640 640" width="640" height="640"><defs><path d="M299.29 81.98L304.64 82.37L309.92 82.92L315.14 83.62L320.28 84.46L325.34 85.45L330.33 86.58L335.22 87.84L340.03 89.24L344.75 90.77L349.36 92.43L353.87 94.21L358.27 96.12L362.57 98.14L366.74 100.28L370.8 102.53L374.73 104.89L378.53 107.36L382.2 109.93L385.74 112.6L389.13 115.36L392.37 118.22L395.47 121.17L398.41 124.21L401.19 127.33L403.81 130.54L406.26 133.82L408.54 137.17L410.65 140.6L412.57 144.1L414.31 147.66L415.86 151.28L417.22 154.97L418.38 158.71L419.34 162.5L420.1 166.34L420.64 170.23L420.97 174.17L421.08 178.14L420.97 182.12L420.64 186.05L420.1 189.94L419.34 193.78L418.38 197.58L417.22 201.32L415.86 205L414.31 208.63L412.57 212.19L410.65 215.68L408.54 219.11L406.26 222.47L403.81 225.75L401.19 228.95L398.41 232.07L395.47 235.11L392.37 238.06L389.13 240.92L385.74 243.69L382.2 246.35L378.53 248.92L374.73 251.39L370.8 253.75L366.74 256L362.57 258.14L358.27 260.16L353.87 262.07L349.36 263.85L344.75 265.51L340.03 267.04L335.22 268.44L330.33 269.71L325.34 270.83L320.28 271.82L315.14 272.67L309.92 273.36L304.64 273.91L299.29 274.31L293.88 274.55L288.41 274.63L282.95 274.55L277.54 274.31L272.19 273.91L266.9 273.36L261.69 272.67L256.55 271.82L251.48 270.83L246.5 269.71L241.6 268.44L236.79 267.04L232.08 265.51L227.46 263.85L222.95 262.07L218.55 260.16L214.26 258.14L210.08 256L206.02 253.75L202.09 251.39L198.29 248.92L194.62 246.35L191.09 243.69L187.7 240.92L184.45 238.06L181.35 235.11L178.41 232.07L175.63 228.95L173.01 225.75L170.56 222.47L168.28 219.11L166.18 215.68L164.25 212.19L162.51 208.63L160.96 205L159.6 201.32L158.44 197.58L157.48 193.78L156.73 189.94L156.18 186.05L155.85 182.12L155.74 178.14L155.85 174.17L156.18 170.23L156.73 166.34L157.48 162.5L158.44 158.71L159.6 154.97L160.96 151.28L162.51 147.66L164.25 144.1L166.18 140.6L168.28 137.17L170.56 133.82L173.01 130.54L175.63 127.33L178.41 124.21L181.35 121.17L184.45 118.22L187.7 115.36L191.09 112.6L194.62 109.93L198.29 107.36L202.09 104.89L206.02 102.53L210.08 100.28L214.26 98.14L218.55 96.12L222.95 94.21L227.46 92.43L232.08 90.77L236.79 89.24L241.6 87.84L246.5 86.58L251.48 85.45L256.55 84.46L261.69 83.62L266.9 82.92L272.19 82.37L277.54 81.98L282.95 81.74L288.41 81.66L293.88 81.74L299.29 81.98ZM279.94 124.33L275.77 124.56L271.65 124.86L267.59 125.25L263.58 125.73L259.63 126.28L255.75 126.91L251.93 127.62L248.19 128.4L244.52 129.26L240.92 130.19L237.41 131.18L233.97 132.25L230.63 133.38L227.37 134.58L224.21 135.84L221.15 137.16L218.19 138.54L215.33 139.98L212.57 141.47L209.93 143.02L207.4 144.62L204.99 146.27L202.7 147.97L200.53 149.71L198.49 151.51L196.58 153.34L194.8 155.22L193.16 157.14L191.66 159.09L190.31 161.09L189.1 163.11L188.04 165.17L187.14 167.27L186.39 169.39L185.8 171.54L185.38 173.72L185.12 175.92L185.03 178.14L185.12 180.37L185.38 182.57L185.8 184.74L186.39 186.89L187.14 189.02L188.04 191.11L189.1 193.17L190.31 195.2L191.66 197.19L193.16 199.15L194.8 201.07L196.58 202.94L198.49 204.78L200.53 206.57L202.7 208.32L204.99 210.02L207.4 211.67L209.93 213.27L212.57 214.82L215.33 216.31L218.19 217.75L221.15 219.13L224.21 220.45L227.37 221.71L230.63 222.9L233.97 224.04L237.41 225.1L240.92 226.1L244.52 227.03L248.19 227.88L251.93 228.67L255.75 229.37L259.63 230.01L263.58 230.56L267.59 231.03L271.65 231.42L275.77 231.73L279.94 231.95L284.15 232.08L288.41 232.13L292.67 232.08L296.89 231.95L301.05 231.73L305.17 231.42L309.24 231.03L313.24 230.56L317.19 230.01L321.07 229.37L324.89 228.67L328.64 227.88L332.31 227.03L335.9 226.1L339.42 225.1L342.85 224.04L346.2 222.9L349.45 221.71L352.61 220.45L355.67 219.13L358.64 217.75L361.5 216.31L364.25 214.82L366.89 213.27L369.42 211.67L371.83 210.02L374.13 208.32L376.29 206.57L378.33 204.78L380.24 202.94L382.02 201.07L383.66 199.15L385.16 197.19L386.52 195.2L387.73 193.17L388.78 191.11L389.69 189.02L390.44 186.89L391.02 184.74L391.45 182.57L391.7 180.37L391.79 178.14L391.7 175.92L391.45 173.72L391.02 171.54L390.44 169.39L389.69 167.27L388.78 165.17L387.73 163.11L386.52 161.09L385.16 159.09L383.66 157.14L382.02 155.22L380.24 153.34L378.33 151.51L376.29 149.71L374.13 147.97L371.83 146.27L369.42 144.62L366.89 143.02L364.25 141.47L361.5 139.98L358.64 138.54L355.67 137.16L352.61 135.84L349.45 134.58L346.2 133.38L342.85 132.25L339.42 131.18L335.9 130.19L332.31 129.26L328.64 128.4L324.89 127.62L321.07 126.91L317.19 126.28L313.24 125.73L309.24 125.25L305.17 124.86L301.05 124.56L296.89 124.33L292.67 124.2L288.41 124.16L284.15 124.2L279.94 124.33Z" id="e52JmOyenx"></path><path d="M115.74 48.55L254.32 48.55L254.32 312.33L115.74 312.33L115.74 48.55Z" id="bQA7NG1vv"></path><path d="M304.35 235.22L309.7 235.61L314.99 236.16L320.2 236.86L325.35 237.7L330.41 238.69L335.39 239.82L340.29 241.09L345.1 242.49L349.81 244.02L354.43 245.68L358.94 247.46L363.34 249.36L367.63 251.39L371.81 253.53L375.87 255.78L379.8 258.14L383.6 260.6L387.27 263.17L390.81 265.84L394.2 268.61L397.44 271.47L400.54 274.42L403.48 277.45L406.26 280.58L408.88 283.78L411.33 287.06L413.61 290.42L415.72 293.84L417.64 297.34L419.38 300.9L420.93 304.53L422.29 308.21L423.45 311.95L424.41 315.74L425.16 319.59L425.71 323.48L426.04 327.41L426.15 331.39L426.04 335.36L425.71 339.29L425.16 343.18L424.41 347.03L423.45 350.82L422.29 354.56L420.93 358.24L419.38 361.87L417.64 365.43L415.72 368.93L413.61 372.35L411.33 375.71L408.88 378.99L406.26 382.19L403.48 385.32L400.54 388.35L397.44 391.3L394.2 394.16L390.81 396.93L387.27 399.6L383.6 402.17L379.8 404.63L375.87 406.99L371.81 409.25L367.63 411.38L363.34 413.41L358.94 415.31L354.43 417.1L349.81 418.75L345.1 420.28L340.29 421.68L335.39 422.95L330.41 424.08L325.35 425.07L320.2 425.91L314.99 426.61L309.7 427.16L304.35 427.55L298.94 427.79L293.48 427.87L288.01 427.79L282.61 427.55L277.26 427.16L271.97 426.61L266.76 425.91L261.61 425.07L256.55 424.08L251.56 422.95L246.67 421.68L241.86 420.28L237.15 418.75L232.53 417.1L228.02 415.31L223.62 413.41L219.32 411.38L215.15 409.25L211.09 406.99L207.16 404.63L203.36 402.17L199.69 399.6L196.15 396.93L192.76 394.16L189.52 391.3L186.42 388.35L183.48 385.32L180.7 382.19L178.08 378.99L175.63 375.71L173.35 372.35L171.24 368.93L169.32 365.43L167.58 361.87L166.03 358.24L164.67 354.56L163.51 350.82L162.55 347.03L161.79 343.18L161.25 339.29L160.92 335.36L160.81 331.39L160.92 327.41L161.25 323.48L161.79 319.59L162.55 315.74L163.51 311.95L164.67 308.21L166.03 304.53L167.58 300.9L169.32 297.34L171.24 293.84L173.35 290.42L175.63 287.06L178.08 283.78L180.7 280.58L183.48 277.45L186.42 274.42L189.52 271.47L192.76 268.61L196.15 265.84L199.69 263.17L203.36 260.6L207.16 258.14L211.09 255.78L215.15 253.53L219.32 251.39L223.62 249.36L228.02 247.46L232.53 245.68L237.15 244.02L241.86 242.49L246.67 241.09L251.56 239.82L256.55 238.69L261.61 237.7L266.76 236.86L271.97 236.16L277.26 235.61L282.61 235.22L288.01 234.98L293.48 234.9L298.94 234.98L304.35 235.22ZM285.01 277.58L280.84 277.8L276.72 278.11L272.66 278.5L268.65 278.97L264.7 279.52L260.82 280.15L257 280.86L253.26 281.64L249.58 282.5L245.99 283.43L242.47 284.43L239.04 285.49L235.7 286.62L232.44 287.82L229.28 289.08L226.22 290.4L223.25 291.78L220.39 293.22L217.64 294.71L215 296.26L212.47 297.86L210.06 299.51L207.77 301.21L205.6 302.96L203.56 304.75L201.65 306.58L199.87 308.46L198.23 310.38L196.73 312.34L195.38 314.33L194.17 316.36L193.11 318.42L192.2 320.51L191.46 322.63L190.87 324.78L190.44 326.96L190.19 329.16L190.1 331.39L190.19 333.61L190.44 335.81L190.87 337.99L191.46 340.14L192.2 342.26L193.11 344.35L194.17 346.41L195.38 348.44L196.73 350.43L198.23 352.39L199.87 354.31L201.65 356.19L203.56 358.02L205.6 359.81L207.77 361.56L210.06 363.26L212.47 364.91L215 366.51L217.64 368.06L220.39 369.55L223.25 370.99L226.22 372.37L229.28 373.69L232.44 374.95L235.7 376.15L239.04 377.28L242.47 378.34L245.99 379.34L249.58 380.27L253.26 381.13L257 381.91L260.82 382.62L264.7 383.25L268.65 383.8L272.66 384.27L276.72 384.66L280.84 384.97L285.01 385.19L289.22 385.33L293.48 385.37L297.74 385.33L301.95 385.19L306.12 384.97L310.24 384.66L314.3 384.27L318.31 383.8L322.26 383.25L326.14 382.62L329.96 381.91L333.7 381.13L337.38 380.27L340.97 379.34L344.49 378.34L347.92 377.28L351.26 376.15L354.52 374.95L357.68 373.69L360.74 372.37L363.71 370.99L366.56 369.55L369.32 368.06L371.96 366.51L374.49 364.91L376.9 363.26L379.19 361.56L381.36 359.81L383.4 358.02L385.31 356.19L387.09 354.31L388.73 352.39L390.23 350.43L391.58 348.44L392.79 346.41L393.85 344.35L394.76 342.26L395.5 340.14L396.09 337.99L396.52 335.81L396.77 333.61L396.86 331.39L396.77 329.16L396.52 326.96L396.09 324.78L395.5 322.63L394.76 320.51L393.85 318.42L392.79 316.36L391.58 314.33L390.23 312.34L388.73 310.38L387.09 308.46L385.31 306.58L383.4 304.75L381.36 302.96L379.19 301.21L376.9 299.51L374.49 297.86L371.96 296.26L369.32 294.71L366.56 293.22L363.71 291.78L360.74 290.4L357.68 289.08L354.52 287.82L351.26 286.62L347.92 285.49L344.49 284.43L340.97 283.43L337.38 282.5L333.7 281.64L329.96 280.86L326.14 280.15L322.26 279.52L318.31 278.97L314.3 278.5L310.24 278.11L306.12 277.8L301.95 277.58L297.74 277.44L293.48 277.4L289.22 277.44L285.01 277.58Z" id="aHQzZA6ru"></path><path d="M120.81 201.79L259.39 201.79L259.39 465.57L120.81 465.57L120.81 201.79Z" id="aAZly5bq"></path><path d="M311.96 168.38C318.62 168.38 324.02 173.78 324.02 180.44C324.02 182.85 324.02 178.03 324.02 180.44C324.02 187.1 318.62 192.5 311.96 192.5C294.16 192.5 252.8 192.5 235 192.5C228.34 192.5 222.94 187.1 222.94 180.44C222.94 178.03 222.94 182.85 222.94 180.44C222.94 173.78 228.34 168.38 235 168.38C252.8 168.38 294.16 168.38 311.96 168.38Z" id="fD2Y5Nk0I"></path><path d="M311.96 312.33C318.62 312.33 324.02 317.73 324.02 324.39C324.02 326.8 324.02 321.98 324.02 324.39C324.02 331.05 318.62 336.45 311.96 336.45C294.16 336.45 252.8 336.45 235 336.45C228.34 336.45 222.94 331.05 222.94 324.39C222.94 321.98 222.94 326.8 222.94 324.39C222.94 317.73 228.34 312.33 235 312.33C252.8 312.33 294.16 312.33 311.96 312.33Z" id="b12GagtdTm"></path></defs><g><g><g><use xlink:href="#e52JmOyenx" opacity="1" fill="#3987be" fill-opacity="1"></use></g><g><use xlink:href="#bQA7NG1vv" opacity="1" fill="#ffffff" fill-opacity="1"></use></g></g><g><g><use xlink:href="#aHQzZA6ru" opacity="1" fill="#3987be" fill-opacity="1"></use></g><g><use xlink:href="#aAZly5bq" opacity="1" fill="#ffffff" fill-opacity="1"></use></g></g><g><use xlink:href="#fD2Y5Nk0I" opacity="1" fill="#3987be" fill-opacity="1"></use></g><g><use xlink:href="#b12GagtdTm" opacity="1" fill="#3987be" fill-opacity="1"></use></g></g></svg>