<?xml version="1.0" standalone="yes"?>
<svg xmlns="http://www.w3.org/2000/svg" width="252" height="409">
<path style="fill:#ffffff; stroke:none;" d="M0 0L0 409L252 409L252 0L0 0z"/>
<path style="fill:#2c3e50; stroke:none;" d="M52 81C58.7337 80.9443 65.2935 79.3331 72 79.0394C100.998 77.7695 131.812 80.1765 158 93.7839C170.28 100.165 185.149 110.608 188.471 125C192.949 144.406 176.841 160.545 161 168.742C139.059 180.094 114.665 185.381 90 185.985C78.9147 186.257 68.0405 184.091 57 184L57 235C92.6519 228.283 133.784 230.821 166 248.731C181.456 257.324 197.981 272.354 193.471 292C189.959 307.299 175.199 317.738 162 324.244C137.992 336.078 109.549 340.123 83 338.961C74.2669 338.578 65.6879 336.687 57 336L57 379C110.075 388.889 170.469 376.334 206.7 334C225.772 311.715 229.238 279.247 216.88 253C212.062 242.765 204.974 234.883 197 227.004C189.569 219.661 180.217 211.006 170 208C184.608 198.145 198.502 187.308 207.796 172C212.414 164.393 215.511 156.625 217.626 148C219.021 142.309 219 136.824 219 131C218.997 79.6556 168.487 49.3626 124 39.1188C106.601 35.1124 89.6212 35.4694 72 35.9861C67.4353 36.12 56.094 35.567 53.0278 39.5887C50.9758 42.2801 52 47.8239 52 51L52 81M30 122.573C18.1071 125.99 18.4961 142.733 30 146.347C35.9934 148.23 43.7718 147 50 147L92 147C98.8327 147 108.721 148.78 114.996 145.682C125.584 140.456 123.562 124.715 112 122.344C106.31 121.177 99.7889 122 94 122L58 122C49.366 122 38.3325 120.178 30 122.573z"/>
<path style="fill:#c2daeb; stroke:none;" d="M147 175L148 176L147 175z"/>
<path style="fill:#2c3e50; stroke:none;" d="M30 266.573C18.107 269.99 18.4961 286.733 30 290.347C35.9934 292.23 43.7718 291 50 291L92 291C98.8327 291 108.721 292.78 114.996 289.682C125.584 284.456 123.562 268.715 112 266.344C106.31 265.177 99.7889 266 94 266L58 266C49.366 266 38.3325 264.178 30 266.573z"/>
</svg>
