<?xml version="1.0" standalone="no"?>
<!DOCTYPE svg PUBLIC "-//W3C//DTD SVG 20010904//EN"
 "http://www.w3.org/TR/2001/REC-SVG-20010904/DTD/svg10.dtd">
<svg version="1.0" xmlns="http://www.w3.org/2000/svg"
 width="400.000000pt" height="396.000000pt" viewBox="0 0 400.000000 396.000000"
 preserveAspectRatio="xMidYMid meet">

<g transform="translate(0.000000,396.000000) scale(0.100000,-0.100000)"
fill="#000000" stroke="none">
<path d="M1725 3954 c-274 -40 -585 -152 -800 -289 -255 -163 -490 -400 -648
-655 -106 -172 -202 -414 -249 -630 -21 -96 -23 -130 -23 -390 0 -322 8 -376
87 -620 166 -510 590 -974 1085 -1189 466 -202 973 -225 1452 -65 504 167 916
525 1155 1000 273 544 272 1202 -1 1748 -104 207 -215 359 -389 531 -274 270
-625 457 -1010 536 -94 20 -144 23 -369 25 -143 1 -273 0 -290 -2z m433 -315
c539 -59 1009 -342 1294 -780 102 -158 200 -404 234 -589 27 -146 25 -431 -4
-575 -67 -335 -237 -646 -479 -876 -476 -450 -1152 -603 -1777 -402 -530 170
-936 567 -1106 1082 -217 655 22 1377 595 1801 358 265 807 387 1243 339z"/>
<path d="M1838 3015 c-336 -53 -628 -270 -778 -580 -144 -296 -144 -624 0
-920 185 -380 576 -613 995 -591 464 23 851 339 972 791 23 88 26 119 26 260
0 142 -3 172 -26 260 -142 530 -649 864 -1189 780z m150 -432 l3 -113 59 0
c175 0 284 -65 311 -184 28 -126 -36 -237 -158 -272 l-58 -17 65 -21 c36 -11
80 -31 97 -44 101 -72 122 -251 42 -361 -51 -72 -165 -121 -281 -121 l-57 0
-3 -97 -3 -98 -27 -3 c-37 -4 -48 25 -48 124 l0 74 -120 0 -120 0 0 510 0 510
110 0 110 0 0 96 c0 111 9 137 48 132 l27 -3 3 -112z"/>
<path d="M1810 2204 l0 -167 143 5 c127 4 149 7 193 29 72 35 97 78 92 156 -3
53 -9 68 -33 93 -40 42 -79 50 -247 50 l-148 0 0 -166z"/>
<path d="M1810 1746 l0 -196 158 0 c176 0 216 11 265 69 49 58 50 173 3 236
-52 67 -90 79 -268 83 l-158 4 0 -196z"/>
</g>
</svg>
